<svg xmlns="http://www.w3.org/2000/svg" version="1.1" xmlns:xlink="http://www.w3.org/1999/xlink" xmlns:svgjs="http://svgjs.com/svgjs" width="140" height="140"><svg width="140" height="140" viewBox="0 0 140 140" fill="none" xmlns="http://www.w3.org/2000/svg">
<rect width="140" height="140" fill="#F4361D"></rect>
<path fill-rule="evenodd" clip-rule="evenodd" d="M66.5 55.9995C74.508 55.9995 81 62.2675 81 69.9995C81 77.7315 74.508 83.9995 66.5 83.9995C58.492 83.9995 52 77.7315 52 69.9995C52 62.2675 58.492 55.9995 66.5 55.9995ZM87.376 55.9995L93.938 68.2995L96.312 63.8495L100.5 55.9995L104.688 63.8495L107.062 68.2995L113.624 55.9995H122L111.25 76.1495L107.062 83.9995L102.874 76.1495L100.5 71.6995L98.126 76.1495L93.938 83.9995L89.75 76.1495L79 55.9995H87.376ZM123.5 72.9995C124.959 72.9996 126.358 73.5793 127.389 74.6109C128.421 75.6426 129 77.0417 129 78.5005C129 79.9593 128.42 81.3584 127.389 82.3898C126.357 83.4213 124.958 84.0006 123.499 84.0005C122.04 84.0004 120.641 83.4207 119.61 82.3891C118.578 81.3575 117.999 79.9583 117.999 78.4995C117.999 77.0407 118.579 75.6417 119.61 74.6102C120.642 73.5788 122.041 72.9994 123.5 72.9995ZM66.5 63.9035C63.019 63.9035 60.186 66.6385 60.186 69.9995C60.186 73.3605 63.019 76.0955 66.5 76.0955C69.981 76.0955 72.814 73.3595 72.814 69.9995C72.814 66.6395 69.981 63.9035 66.5 63.9035Z" fill="white"></path>
<path d="M25.938 68.2995L19.376 55.9995H11L21.75 76.1495L25.938 83.9995L30.126 76.1495L32.5 71.6995L34.874 76.1495L39.062 83.9995L43.25 76.1495L54 55.9995H45.624L39.062 68.2995L36.688 63.8495L32.5 55.9995L28.312 63.8495L25.938 68.2995Z" fill="white"></path>
</svg><style>@media (prefers-color-scheme: light) { :root { filter: none; } }
</style></svg>